<?xml version="1.0" encoding="UTF-8" standalone="no"?><svg xmlns="http://www.w3.org/2000/svg" xmlns:xlink="http://www.w3.org/1999/xlink" contentScriptType="application/ecmascript" contentStyleType="text/css" height="292px" preserveAspectRatio="none" style="width:986px;height:292px;" version="1.1" viewBox="0 0 986 292" width="986px" zoomAndPan="magnify"><defs><filter height="300%" id="f513n91" width="300%" x="-1" y="-1"><feGaussianBlur result="blurOut" stdDeviation="2.0"/><feColorMatrix in="blurOut" result="blurOut2" type="matrix" values="0 0 0 0 0 0 0 0 0 0 0 0 0 0 0 0 0 0 .4 0"/><feOffset dx="4.0" dy="4.0" in="blurOut2" result="blurOut3"/><feBlend in="SourceGraphic" in2="blurOut3" mode="normal"/></filter></defs><g><!--class PoliticalGroup--><rect fill="#FEFECE" filter="url(#f513n91)" height="31.9688" style="stroke: #A80036; stroke-width: 1.5;" width="92" x="6" y="130"/><text fill="#000000" font-family="sans-serif" font-size="12" lengthAdjust="spacingAndGlyphs" textLength="86" x="9" y="146.1387">PoliticalGroup</text><line style="stroke: #A80036; stroke-width: 1.5;" x1="7" x2="97" y1="153.9688" y2="153.9688"/><!--class MEP--><rect fill="#FEFECE" filter="url(#f513n91)" height="31.9688" style="stroke: #A80036; stroke-width: 1.5;" width="32" x="264" y="130"/><text fill="#000000" font-family="sans-serif" font-size="12" lengthAdjust="spacingAndGlyphs" textLength="26" x="267" y="146.1387">MEP</text><line style="stroke: #A80036; stroke-width: 1.5;" x1="265" x2="295" y1="153.9688" y2="153.9688"/><!--class VotePosition--><rect fill="#FEFECE" filter="url(#f513n91)" height="31.9688" style="stroke: #A80036; stroke-width: 1.5;" width="85" x="388.5" y="130"/><text fill="#000000" font-family="sans-serif" font-size="12" lengthAdjust="spacingAndGlyphs" textLength="79" x="391.5" y="146.1387">VotePosition</text><line style="stroke: #A80036; stroke-width: 1.5;" x1="389.5" x2="472.5" y1="153.9688" y2="153.9688"/><!--class MEPVote--><rect fill="#FEFECE" filter="url(#f513n91)" height="31.9688" style="stroke: #A80036; stroke-width: 1.5;" width="119" x="371.5" y="8"/><text fill="#000000" font-family="sans-serif" font-size="12" lengthAdjust="spacingAndGlyphs" textLength="55" x="374.5" y="24.1387">MEPVote</text><rect fill="#FFFFFF" height="15.9688" style="stroke: #000000; stroke-width: 1.0; stroke-dasharray: 2.0,2.0;" width="56" x="437.5" y="5"/><text fill="#000000" font-family="sans-serif" font-size="12" font-style="italic" lengthAdjust="spacingAndGlyphs" textLength="54" x="438.5" y="17.1387">MEPVote</text><line style="stroke: #A80036; stroke-width: 1.5;" x1="372.5" x2="489.5" y1="31.9688" y2="31.9688"/><!--class Vote--><rect fill="#FEFECE" filter="url(#f513n91)" height="57.5781" style="stroke: #A80036; stroke-width: 1.5;" width="176" x="626" y="117"/><text fill="#000000" font-family="sans-serif" font-size="12" lengthAdjust="spacingAndGlyphs" textLength="29" x="683" y="133.1387">Vote</text><rect fill="#FFFFFF" height="15.9688" style="stroke: #000000; stroke-width: 1.0; stroke-dasharray: 2.0,2.0;" width="31" x="774" y="114"/><text fill="#000000" font-family="sans-serif" font-size="12" font-style="italic" lengthAdjust="spacingAndGlyphs" textLength="29" x="775" y="126.1387">Vote</text><line style="stroke: #A80036; stroke-width: 1.5;" x1="627" x2="801" y1="140.9688" y2="140.9688"/><text fill="#000000" font-family="sans-serif" font-size="11" lengthAdjust="spacingAndGlyphs" textLength="161" x="632" y="155.1792">prefLabel  : langString [1..1]</text><text fill="#000000" font-family="sans-serif" font-size="11" lengthAdjust="spacingAndGlyphs" textLength="164" x="632" y="167.9839">voteIdentifier  : integer [1..1]</text><!--class PlenarySitting--><rect fill="#FEFECE" filter="url(#f513n91)" height="31.9688" style="stroke: #A80036; stroke-width: 1.5;" width="92" x="668" y="252"/><text fill="#000000" font-family="sans-serif" font-size="12" lengthAdjust="spacingAndGlyphs" textLength="86" x="671" y="268.1387">PlenarySitting</text><line style="stroke: #A80036; stroke-width: 1.5;" x1="669" x2="759" y1="275.9688" y2="275.9688"/><path d="M429.6874,40.1667 C429.037,48.979 428.3231,60.0814 428,70 C427.3989,88.4541 428.3494,109.4225 429.336,124.6531 " fill="none" style="stroke: #800000; stroke-width: 1.0;"/><polygon fill="#800000" points="429.6982,129.9894,433.0793,120.7391,429.3595,125.0009,425.0977,121.281,429.6982,129.9894" style="stroke: #800000; stroke-width: 1.0;"/><text fill="#000000" font-family="sans-serif" font-size="13" lengthAdjust="spacingAndGlyphs" textLength="116" x="429" y="83.0669">votePosition [1..1]</text><path d="M474.8257,40.0744 C497.4352,48.5853 525.3674,59.4394 550,70 C566.2627,76.9722 569.9652,79.5187 586,87 C605.3178,96.0131 626.3109,105.7243 645.602,114.6148 " fill="none" style="stroke: #800000; stroke-width: 1.0;"/><polygon fill="#800000" points="650.4678,116.8565,643.9672,109.4577,645.9265,114.7644,640.6198,116.7237,650.4678,116.8565" style="stroke: #800000; stroke-width: 1.0;"/><text fill="#000000" font-family="sans-serif" font-size="13" lengthAdjust="spacingAndGlyphs" textLength="201" x="587" y="83.0669">MEPVoteFormsPartOfVote[1..1]</text><path d="M772.9285,116.9971 C793.1204,103.2791 807.4048,86.3511 793,70 C773.7145,48.1088 594.7578,33.9047 495.8969,27.6594 " fill="none" style="stroke: #800000; stroke-width: 1.0;"/><polygon fill="#800000" points="490.6685,27.3318,499.4007,31.8868,495.6587,27.6445,499.901,23.9025,490.6685,27.3318" style="stroke: #800000; stroke-width: 1.0;"/><text fill="#000000" font-family="sans-serif" font-size="13" lengthAdjust="spacingAndGlyphs" textLength="186" x="799" y="83.0669">voteConsistsOfMEPVote[1..*]</text><path d="M371.4524,26.4934 C289.0942,30.9136 145.6262,42.4107 102,70 C81.6236,82.886 67.7698,107.4267 59.9048,125.1414 " fill="none" style="stroke: #800000; stroke-width: 1.0;"/><polygon fill="#800000" points="57.8448,129.9415,65.0701,123.2486,59.8167,125.3468,57.7185,120.0935,57.8448,129.9415" style="stroke: #800000; stroke-width: 1.0;"/><text fill="#000000" font-family="sans-serif" font-size="13" lengthAdjust="spacingAndGlyphs" textLength="186" x="103" y="83.0669">voteFromPoliticalGroup [1..1]</text><path d="M371.3119,35.6256 C349.3894,42.4744 325.8397,53.2268 309,70 C294.1289,84.8123 286.7505,108.0419 283.1771,124.9226 " fill="none" style="stroke: #800000; stroke-width: 1.0;"/><polygon fill="#800000" points="282.1862,129.9413,287.8539,121.8866,283.1548,125.036,280.0054,120.3369,282.1862,129.9413" style="stroke: #800000; stroke-width: 1.0;"/><text fill="#000000" font-family="sans-serif" font-size="13" lengthAdjust="spacingAndGlyphs" textLength="109" x="310" y="83.0669">voteByMEP [1..1]</text><path d="M714,175.222 C714,197.2237 714,226.8776 714,246.6785 " fill="none" style="stroke: #800000; stroke-width: 1.0;"/><polygon fill="#800000" points="714,251.7383,718,242.7383,714,246.7383,710,242.7383,714,251.7383" style="stroke: #800000; stroke-width: 1.0;"/><text fill="#000000" font-family="sans-serif" font-size="13" lengthAdjust="spacingAndGlyphs" textLength="234" x="715" y="218.0669">voteFormsPartOfPlenarySitting [1..1]</text></g></svg>